<svg width="195" height="64" viewBox="0 0 195 64" fill="none" xmlns="http://www.w3.org/2000/svg">
<g clip-path="url(#clip0_7_3934)">
<path d="M178.976 8.59297e-05H15.4944C14.8985 8.59297e-05 14.3098 8.59298e-05 13.7154 0.00328593C13.2179 0.00648593 12.7244 0.0157819 12.2221 0.0236059C11.1309 0.0362488 10.0422 0.130768 8.96563 0.306342C7.89053 0.485738 6.8491 0.823951 5.87658 1.30954C4.90525 1.79924 4.01771 2.43555 3.24618 3.1954C2.47059 3.9531 1.82407 4.82891 1.33149 5.78914C0.837557 6.74746 0.49506 7.77439 0.315831 8.83445C0.134898 9.89318 0.0375363 10.9641 0.0246197 12.0377C0.00953911 12.5282 0.00794655 13.0204 0 13.511V50.4938C0.00794655 50.9906 0.00953911 51.4719 0.0246197 51.9689C0.0375403 53.0424 0.134902 54.1132 0.315831 55.1719C0.494565 56.2326 0.837083 57.2601 1.33149 58.2188C1.82385 59.1759 2.47045 60.0482 3.24618 60.8017C4.01479 61.5649 4.9029 62.2016 5.87658 62.6876C6.8491 63.1745 7.89041 63.5147 8.96563 63.6969C10.0424 63.8711 11.131 63.9656 12.2221 63.9798C12.7244 63.9906 13.2179 63.9969 13.7154 63.9969C14.3098 64.0001 14.8986 64.0001 15.4944 64.0001H178.976C179.56 64.0001 180.153 64.0001 180.737 63.9969C181.233 63.9969 181.74 63.9906 182.236 63.9798C183.325 63.9664 184.411 63.8718 185.486 63.6969C186.564 63.5134 187.609 63.1733 188.587 62.6876C189.559 62.2014 190.447 61.5646 191.215 60.8017C191.988 60.0452 192.636 59.1736 193.135 58.2188C193.626 57.2594 193.965 56.232 194.141 55.1719C194.322 54.1131 194.423 53.0425 194.443 51.9689C194.449 51.4719 194.449 50.9906 194.449 50.4938C194.462 49.9126 194.462 49.3345 194.462 48.7438V15.2579C194.462 14.672 194.462 14.0907 194.449 13.511C194.449 13.0204 194.449 12.5282 194.443 12.0376C194.423 10.964 194.322 9.89326 194.141 8.83439C193.964 7.77494 193.625 6.74809 193.135 5.78908C192.132 3.8644 190.541 2.29773 188.587 1.3094C187.609 0.824994 186.564 0.486871 185.486 0.306198C184.411 0.12985 183.325 0.0352984 182.236 0.0233819C181.74 0.0155739 181.233 0.00619793 180.737 0.00307793C180.153 -0.00012207 179.56 -0.00012207 178.976 -0.00012207V8.59297e-05Z" fill="#A6A6A6"/>
<path d="M13.7233 62.6C13.2282 62.6 12.7451 62.5938 12.2538 62.5829C11.2362 62.5699 10.2209 62.4826 9.21635 62.3219C8.27965 62.1631 7.37224 61.8676 6.52405 61.4453C5.68363 61.0265 4.91711 60.4773 4.25383 59.8187C3.58096 59.168 3.02077 58.4132 2.59544 57.5843C2.16543 56.7501 1.86784 55.8559 1.71303 54.9328C1.54586 53.941 1.4554 52.9381 1.44246 51.9328C1.43216 51.5954 1.41867 50.4719 1.41867 50.4719V13.511C1.41867 13.511 1.43304 12.4047 1.44254 12.0797C1.45494 11.076 1.54486 10.0747 1.71154 9.08439C1.86663 8.15882 2.16446 7.26202 2.5947 6.42503C3.01845 5.59673 3.57554 4.8414 4.24436 4.18831C4.91243 3.52902 5.68141 2.97699 6.52325 2.55236C7.36949 2.13137 8.27519 1.838 9.21 1.68206C10.2179 1.51976 11.2366 1.43202 12.2578 1.41956L13.7241 1.40002H180.729L182.213 1.42034C183.225 1.43218 184.235 1.51914 185.233 1.68049C186.178 1.83838 187.093 2.13381 187.949 2.55705C189.635 3.4128 191.007 4.76669 191.873 6.42894C192.296 7.26015 192.59 8.14963 192.743 9.06721C192.911 10.0656 193.006 11.0748 193.025 12.0867C193.03 12.5399 193.03 13.0266 193.03 13.511C193.043 14.111 193.043 14.6821 193.043 15.2578V48.7437C193.043 49.325 193.043 49.8922 193.03 50.464C193.03 50.9843 193.03 51.461 193.024 51.9515C193.005 52.9454 192.912 53.9366 192.746 54.9171C192.594 55.8468 192.298 56.748 191.868 57.5891C191.44 58.409 190.883 59.1572 190.218 59.8063C189.554 60.4683 188.786 61.0207 187.944 61.4423C187.09 61.8679 186.177 62.1644 185.233 62.3219C184.229 62.4835 183.213 62.5707 182.196 62.5829C181.72 62.5938 181.221 62.6 180.737 62.6L178.976 62.6032L13.7233 62.6Z" fill="black"/>
<path d="M40.251 32.481C40.2684 31.1455 40.6287 29.8361 41.2983 28.6746C41.9678 27.5131 42.9249 26.5371 44.0805 25.8377C43.3464 24.8054 42.378 23.9559 41.2521 23.3566C40.1262 22.7573 38.8739 22.4248 37.5946 22.3854C34.8658 22.1034 32.2202 23.9931 30.8297 23.9931C29.4122 23.9931 27.2711 22.4134 24.9656 22.4601C23.4743 22.5075 22.021 22.9345 20.7471 23.6994C19.4733 24.4643 18.4224 25.541 17.6969 26.8247C14.554 32.1821 16.8983 40.0558 19.9089 44.3864C21.4152 46.507 23.1756 48.8757 25.479 48.7917C27.7331 48.6996 28.5749 47.3765 31.2957 47.3765C33.9913 47.3765 34.7812 48.7917 37.1313 48.7383C39.5501 48.6996 41.074 46.6083 42.5274 44.4677C43.6096 42.9567 44.4424 41.2867 44.9949 39.5196C43.5897 38.9345 42.3905 37.955 41.5469 36.7033C40.7033 35.4516 40.2526 33.9832 40.251 32.481Z" fill="white"/>
<path d="M35.8119 19.5374C37.1307 17.9787 37.7804 15.9752 37.6231 13.9524C35.6083 14.1607 33.7472 15.1088 32.4106 16.6078C31.7571 17.34 31.2566 18.1919 30.9376 19.1148C30.6187 20.0376 30.4877 21.0133 30.552 21.986C31.5597 21.9962 32.5567 21.7811 33.4678 21.357C34.3789 20.9329 35.1804 20.3107 35.8119 19.5374Z" fill="white"/>
<path d="M68.7438 43.4235H61.0517L59.2045 48.7938H55.9464L63.2322 28.925H66.6172L73.903 48.7938H70.5894L68.7438 43.4235ZM61.8484 40.9454H67.9456L64.9399 32.2298H64.8557L61.8484 40.9454Z" fill="white"/>
<path d="M89.6379 41.5517C89.6379 46.0533 87.1908 48.9454 83.4979 48.9454C82.5624 48.9936 81.6321 48.7814 80.8134 48.3332C79.9947 47.885 79.3207 47.2188 78.8687 46.411H78.7988V53.586H75.7788V34.3079H78.702V36.7173H78.7576C79.2304 35.9134 79.9157 35.2507 80.7407 34.7997C81.5656 34.3487 82.4993 34.1264 83.4423 34.1564C87.1764 34.1564 89.6379 37.0626 89.6379 41.5517ZM86.5337 41.5517C86.5337 38.6189 84.9944 36.6907 82.6457 36.6907C80.3382 36.6907 78.7861 38.6595 78.7861 41.5517C78.7861 44.4704 80.3382 46.4251 82.6457 46.4251C84.9944 46.4251 86.5337 44.5111 86.5337 41.5517Z" fill="white"/>
<path d="M105.831 41.5517C105.831 46.0532 103.384 48.9454 99.6914 48.9454C98.7559 48.9936 97.8256 48.7814 97.0069 48.3332C96.1882 47.885 95.5142 47.2188 95.0622 46.411H94.9923V53.586H91.9723V34.3079H94.8955V36.7173H94.951C95.4239 35.9133 96.1092 35.2506 96.9341 34.7997C97.7591 34.3487 98.6927 34.1264 99.6358 34.1564C103.37 34.1564 105.831 37.0626 105.831 41.5517ZM102.727 41.5517C102.727 38.6189 101.188 36.6907 98.8392 36.6907C96.5317 36.6907 94.9796 38.6595 94.9796 41.5517C94.9796 44.4704 96.5317 46.4251 98.8392 46.4251C101.188 46.4251 102.727 44.511 102.727 41.5517H102.727Z" fill="white"/>
<path d="M116.534 43.2579C116.758 45.2282 118.702 46.5219 121.358 46.5219C123.904 46.5219 125.735 45.2281 125.735 43.4516C125.735 41.9094 124.631 40.986 122.015 40.3531L119.4 39.7328C115.694 38.8516 113.974 37.1453 113.974 34.3766C113.974 30.9484 117.008 28.5938 121.317 28.5938C125.581 28.5938 128.504 30.9484 128.603 34.3766H125.554C125.372 32.3937 123.707 31.1969 121.274 31.1969C118.841 31.1969 117.177 32.4078 117.177 34.1703C117.177 35.575 118.24 36.4016 120.841 37.0343L123.064 37.5718C127.205 38.5359 128.925 40.1734 128.925 43.0796C128.925 46.7968 125.918 49.1249 121.135 49.1249C116.659 49.1249 113.638 46.8515 113.442 43.2577L116.534 43.2579Z" fill="white"/>
<path d="M135.443 30.8798V34.3079H138.241V36.6626H135.443V44.6485C135.443 45.8891 136.003 46.4673 137.233 46.4673C137.565 46.4616 137.897 46.4386 138.226 46.3985V48.7391C137.673 48.8408 137.111 48.8869 136.549 48.8766C133.57 48.8766 132.408 47.775 132.408 44.9656V36.6626H130.269V34.3079H132.408V30.8798H135.443Z" fill="white"/>
<path d="M139.861 41.5516C139.861 36.9938 142.587 34.1298 146.839 34.1298C151.105 34.1298 153.818 36.9938 153.818 41.5516C153.818 46.122 151.119 48.9735 146.839 48.9735C142.56 48.9735 139.861 46.1219 139.861 41.5516ZM150.741 41.5516C150.741 38.4251 149.286 36.5798 146.839 36.5798C144.392 36.5798 142.938 38.4391 142.938 41.5516C142.938 44.6907 144.392 46.522 146.839 46.522C149.286 46.522 150.741 44.6907 150.741 41.5516H150.741Z" fill="white"/>
<path d="M156.308 34.3078H159.189V36.7734H159.258C159.453 36.0033 159.912 35.3228 160.556 34.8462C161.201 34.3696 161.992 34.1259 162.797 34.1562C163.145 34.155 163.493 34.1922 163.832 34.2672V37.0484C163.393 36.9162 162.934 36.8555 162.475 36.8687C162.036 36.8512 161.599 36.9274 161.193 37.092C160.787 37.2566 160.422 37.5058 160.123 37.8224C159.824 38.139 159.598 38.5156 159.461 38.9263C159.324 39.3369 159.279 39.772 159.328 40.2015V48.7937H156.308L156.308 34.3078Z" fill="white"/>
<path d="M177.756 44.5391C177.35 47.1688 174.749 48.9735 171.421 48.9735C167.141 48.9735 164.484 46.1501 164.484 41.6204C164.484 37.0766 167.155 34.1298 171.294 34.1298C175.365 34.1298 177.924 36.8829 177.924 41.2751V42.2938H167.533V42.4735C167.485 43.0066 167.553 43.5437 167.732 44.049C167.911 44.5544 168.197 45.0164 168.571 45.4045C168.946 45.7926 169.4 46.0978 169.903 46.2999C170.406 46.502 170.948 46.5963 171.491 46.5766C172.205 46.6425 172.921 46.4797 173.533 46.1126C174.145 45.7455 174.621 45.1937 174.889 44.5391L177.756 44.5391ZM167.547 40.2157H174.903C174.93 39.7363 174.856 39.2566 174.686 38.8067C174.516 38.3568 174.253 37.9463 173.914 37.6011C173.576 37.2559 173.168 36.9833 172.717 36.8006C172.266 36.6178 171.782 36.5288 171.294 36.5391C170.802 36.5362 170.315 36.6293 169.86 36.8129C169.405 36.9965 168.991 37.267 168.643 37.6088C168.294 37.9506 168.018 38.3569 167.83 38.8044C167.642 39.2518 167.546 39.7315 167.547 40.2157V40.2157Z" fill="white"/>
<path d="M61.4699 13.9697C62.1031 13.925 62.7384 14.0191 63.3301 14.2454C63.9218 14.4717 64.4551 14.8245 64.8916 15.2783C65.3281 15.7321 65.6568 16.2756 65.8541 16.8696C66.0514 17.4637 66.1123 18.0934 66.0325 18.7134C66.0325 21.7634 64.3582 23.5166 61.4699 23.5166H57.9675V13.9697H61.4699ZM59.4735 22.1665H61.3017C61.7541 22.1931 62.2069 22.1201 62.627 21.9527C63.0472 21.7853 63.4241 21.5278 63.7304 21.1989C64.0367 20.87 64.2647 20.478 64.3977 20.0514C64.5308 19.6248 64.5655 19.1744 64.4994 18.7329C64.5607 18.2932 64.5224 17.8455 64.3874 17.4221C64.2523 16.9986 64.0238 16.6098 63.7182 16.2835C63.4125 15.9572 63.0374 15.7015 62.6196 15.5347C62.2019 15.368 61.7518 15.2942 61.3017 15.3188H59.4735V22.1665Z" fill="white"/>
<path d="M67.7337 19.9109C67.6877 19.4375 67.7427 18.9598 67.8952 18.5084C68.0477 18.0571 68.2943 17.6422 68.6192 17.2902C68.9441 16.9382 69.3402 16.657 69.782 16.4646C70.2237 16.2721 70.7015 16.1727 71.1846 16.1727C71.6677 16.1727 72.1454 16.2721 72.5872 16.4646C73.029 16.657 73.425 16.9382 73.7499 17.2902C74.0748 17.6422 74.3215 18.0571 74.4739 18.5084C74.6264 18.9598 74.6815 19.4375 74.6354 19.9109C74.6823 20.3849 74.628 20.8633 74.4759 21.3153C74.3238 21.7673 74.0773 22.183 73.7523 22.5357C73.4273 22.8884 73.031 23.1702 72.5888 23.363C72.1465 23.5559 71.6682 23.6555 71.1846 23.6555C70.7009 23.6555 70.2226 23.5559 69.7804 23.363C69.3382 23.1702 68.9418 22.8884 68.6168 22.5357C68.2918 22.183 68.0454 21.7673 67.8933 21.3153C67.7412 20.8633 67.6868 20.3849 67.7337 19.9109ZM73.15 19.9109C73.15 18.3492 72.4375 17.4359 71.187 17.4359C69.9317 17.4359 69.2255 18.3492 69.2255 19.911C69.2255 21.4852 69.9317 22.3914 71.187 22.3914C72.4375 22.3914 73.15 21.4789 73.15 19.9109H73.15Z" fill="white"/>
<path d="M83.8098 23.5165H82.3117L80.7993 18.2102H80.685L79.179 23.5165H77.6951L75.6781 16.3118H77.1429L78.4537 21.8094H78.5616L80.0661 16.3118H81.4515L82.956 21.8094H83.0702L84.3747 16.3118H85.8189L83.8098 23.5165Z" fill="white"/>
<path d="M87.5154 16.3118H88.9055V17.4563H89.0135C89.1965 17.0453 89.5053 16.7007 89.8967 16.4706C90.2882 16.2405 90.7427 16.1364 91.1971 16.1727C91.5532 16.1464 91.9107 16.1992 92.2432 16.3274C92.5757 16.4555 92.8746 16.6557 93.1178 16.9131C93.3611 17.1704 93.5424 17.4784 93.6484 17.8141C93.7543 18.1498 93.7822 18.5047 93.7299 18.8524V23.5164H92.2858V19.2095C92.2858 18.0517 91.7748 17.4759 90.7068 17.4759C90.465 17.4648 90.2237 17.5053 89.9993 17.5946C89.775 17.684 89.5729 17.82 89.407 17.9934C89.241 18.1668 89.1151 18.3735 89.0379 18.5993C88.9606 18.8251 88.9339 19.0647 88.9595 19.3017V23.5165H87.5154L87.5154 16.3118Z" fill="white"/>
<path d="M96.0311 13.4993H97.4752V23.5164H96.0311V13.4993Z" fill="white"/>
<path d="M99.4827 19.9109C99.4367 19.4374 99.4918 18.9597 99.6443 18.5084C99.7968 18.0571 100.043 17.6421 100.368 17.2901C100.693 16.9381 101.089 16.6569 101.531 16.4645C101.973 16.272 102.451 16.1726 102.934 16.1726C103.417 16.1726 103.895 16.272 104.337 16.4645C104.778 16.6569 105.175 16.9381 105.499 17.2901C105.824 17.6421 106.071 18.0571 106.224 18.5084C106.376 18.9597 106.431 19.4374 106.385 19.9109C106.432 20.3849 106.378 20.8633 106.226 21.3153C106.073 21.7674 105.827 22.1831 105.502 22.5357C105.177 22.8884 104.78 23.1702 104.338 23.363C103.896 23.5559 103.418 23.6555 102.934 23.6555C102.45 23.6555 101.972 23.5559 101.53 23.363C101.087 23.1702 100.691 22.8884 100.366 22.5357C100.041 22.1831 99.7946 21.7674 99.6424 21.3153C99.4903 20.8633 99.4359 20.3849 99.4827 19.9109ZM104.899 19.9109C104.899 18.3492 104.186 17.436 102.936 17.436C101.681 17.436 100.974 18.3492 100.974 19.911C100.974 21.4852 101.681 22.3914 102.936 22.3914C104.186 22.3914 104.899 21.4789 104.899 19.9109H104.899Z" fill="white"/>
<path d="M107.906 21.479C107.906 20.1821 108.886 19.4344 110.627 19.3282L112.609 19.2157V18.5938C112.609 17.8329 112.098 17.4032 111.111 17.4032C110.305 17.4032 109.747 17.6946 109.586 18.204H108.188C108.336 16.9665 109.518 16.1727 111.178 16.1727C113.012 16.1727 114.047 17.0719 114.047 18.5938V23.5165H112.657V22.504H112.543C112.311 22.8672 111.985 23.1632 111.599 23.362C111.213 23.5607 110.78 23.655 110.345 23.6352C110.038 23.6666 109.727 23.6344 109.433 23.5405C109.14 23.4465 108.869 23.2931 108.639 23.0899C108.409 22.8868 108.225 22.6384 108.099 22.361C107.973 22.0835 107.907 21.7831 107.906 21.479ZM112.609 20.8633V20.261L110.822 20.3735C109.815 20.4399 109.358 20.7774 109.358 21.4126C109.358 22.061 109.929 22.4383 110.715 22.4383C110.945 22.4613 111.177 22.4384 111.398 22.371C111.619 22.3037 111.824 22.1933 112.001 22.0463C112.178 21.8994 112.323 21.7189 112.427 21.5157C112.532 21.3125 112.594 21.0906 112.609 20.8633Z" fill="white"/>
<path d="M115.945 19.911C115.945 17.6345 117.134 16.1923 118.983 16.1923C119.44 16.1715 119.894 16.2794 120.291 16.5032C120.689 16.727 121.013 17.0576 121.227 17.4563H121.335V13.4993H122.779V23.5165H121.395V22.3782H121.281C121.05 22.7741 120.715 23.1006 120.31 23.3222C119.905 23.5437 119.446 23.652 118.983 23.6352C117.121 23.6353 115.945 22.193 115.945 19.911ZM117.437 19.911C117.437 21.4391 118.169 22.3587 119.392 22.3587C120.609 22.3587 121.362 21.4259 121.362 19.9173C121.362 18.4157 120.601 17.4696 119.392 17.4696C118.176 17.4696 117.437 18.3954 117.437 19.911H117.437Z" fill="white"/>
<path d="M128.754 19.9109C128.708 19.4375 128.763 18.9598 128.915 18.5084C129.068 18.0571 129.314 17.6422 129.639 17.2902C129.964 16.9382 130.36 16.657 130.802 16.4646C131.244 16.2721 131.721 16.1727 132.205 16.1727C132.688 16.1727 133.165 16.2721 133.607 16.4646C134.049 16.657 134.445 16.9382 134.77 17.2902C135.095 17.6422 135.341 18.0571 135.494 18.5084C135.646 18.9598 135.701 19.4375 135.655 19.9109C135.702 20.3849 135.648 20.8633 135.496 21.3153C135.344 21.7673 135.097 22.183 134.772 22.5357C134.447 22.8884 134.051 23.1702 133.609 23.363C133.167 23.5559 132.688 23.6555 132.205 23.6555C131.721 23.6555 131.243 23.5559 130.8 23.363C130.358 23.1702 129.962 22.8884 129.637 22.5357C129.312 22.183 129.065 21.7673 128.913 21.3153C128.761 20.8633 128.707 20.3849 128.754 19.9109ZM134.17 19.9109C134.17 18.3492 133.457 17.4359 132.207 17.4359C130.952 17.4359 130.245 18.3492 130.245 19.911C130.245 21.4852 130.952 22.3914 132.207 22.3914C133.457 22.3914 134.17 21.4789 134.17 19.9109Z" fill="white"/>
<path d="M137.593 16.3118H138.983V17.4563H139.091C139.274 17.0453 139.583 16.7007 139.974 16.4706C140.366 16.2405 140.82 16.1364 141.275 16.1727C141.631 16.1464 141.988 16.1992 142.321 16.3274C142.653 16.4555 142.952 16.6557 143.196 16.9131C143.439 17.1704 143.62 17.4784 143.726 17.8141C143.832 18.1498 143.86 18.5047 143.808 18.8524V23.5164H142.364V19.2095C142.364 18.0517 141.853 17.4759 140.784 17.4759C140.543 17.4648 140.301 17.5053 140.077 17.5946C139.853 17.684 139.651 17.82 139.485 17.9934C139.319 18.1668 139.193 18.3735 139.116 18.5993C139.038 18.8251 139.012 19.0647 139.037 19.3017V23.5165H137.593V16.3118Z" fill="white"/>
<path d="M151.968 14.5179V16.3445H153.553V17.5422H151.968V21.2469C151.968 22.0015 152.284 22.332 153.003 22.332C153.187 22.3314 153.371 22.3205 153.553 22.2992V23.4836C153.294 23.5292 153.031 23.5535 152.768 23.5562C151.162 23.5562 150.522 23 150.522 21.6109V17.5421H149.361V16.3444H150.522V14.5179H151.968Z" fill="white"/>
<path d="M155.526 13.4993H156.957V17.4696H157.072C157.264 17.0547 157.581 16.7081 157.98 16.4772C158.379 16.2462 158.841 16.1421 159.303 16.179C159.657 16.16 160.011 16.2182 160.34 16.3495C160.669 16.4807 160.964 16.6818 161.205 16.9384C161.445 17.1949 161.625 17.5006 161.732 17.8336C161.839 18.1666 161.87 18.5188 161.823 18.8649V23.5165H160.377V19.2157C160.377 18.0649 159.833 17.4821 158.813 17.4821C158.564 17.462 158.315 17.4956 158.081 17.5805C157.847 17.6654 157.635 17.7995 157.46 17.9735C157.284 18.1475 157.15 18.3571 157.065 18.5877C156.98 18.8184 156.948 19.0644 156.97 19.3086V23.5164H155.526L155.526 13.4993Z" fill="white"/>
<path d="M170.244 21.5712C170.047 22.2296 169.622 22.7992 169.043 23.1802C168.463 23.5613 167.766 23.7295 167.073 23.6555C166.591 23.6681 166.112 23.5771 165.669 23.3891C165.226 23.2011 164.83 22.9204 164.508 22.5666C164.187 22.2127 163.947 21.7942 163.806 21.3401C163.665 20.886 163.627 20.4072 163.693 19.9368C163.628 19.465 163.668 18.9851 163.808 18.5296C163.949 18.0741 164.187 17.6537 164.507 17.2968C164.827 16.9399 165.221 16.6548 165.663 16.4609C166.104 16.2669 166.583 16.1687 167.066 16.1727C169.103 16.1727 170.331 17.5423 170.331 19.8047V20.3009H165.164V20.3806C165.141 20.6449 165.175 20.9111 165.263 21.1619C165.351 21.4127 165.491 21.6426 165.674 21.8369C165.858 22.0313 166.081 22.1857 166.328 22.2903C166.576 22.395 166.843 22.4475 167.112 22.4446C167.458 22.4854 167.808 22.4241 168.118 22.2686C168.428 22.1131 168.684 21.8703 168.853 21.5711L170.244 21.5712ZM165.164 19.2493H168.86C168.878 19.0075 168.844 18.7646 168.762 18.5363C168.679 18.3079 168.548 18.0991 168.379 17.9234C168.209 17.7476 168.004 17.6087 167.777 17.5156C167.549 17.4225 167.305 17.3773 167.058 17.3829C166.809 17.3798 166.561 17.426 166.329 17.5187C166.098 17.6114 165.888 17.7488 165.711 17.9227C165.535 18.0967 165.395 18.3036 165.301 18.5315C165.207 18.7593 165.16 19.0034 165.164 19.2493H165.164Z" fill="white"/>
</g>
<defs>
<clipPath id="clip0_7_3934">
<rect width="194.462" height="64" fill="white"/>
</clipPath>
</defs>
</svg>
