<svg width="12" height="16" viewBox="0 0 12 16" fill="none" xmlns="http://www.w3.org/2000/svg">
                                    <path d="M8.00001 1.35962V2.29295C8.00001 2.66632 8.00001 2.85301 7.92734 2.99561C7.86341 3.12105 7.76148 3.22304 7.63601 3.28696C7.49341 3.35962 7.30674 3.35962 6.93334 3.35962H5.06668C4.69328 3.35962 4.50662 3.35962 4.36402 3.28696C4.23858 3.22304 4.13659 3.12105 4.07267 2.99561C4.00001 2.85301 4.00001 2.66632 4.00001 2.29295V1.35962M3.46668 14.693H8.53334C9.28008 14.693 9.65348 14.693 9.93868 14.5476C10.1895 14.4198 10.3935 14.2158 10.5213 13.965C10.6667 13.6798 10.6667 13.3064 10.6667 12.5596V3.49295C10.6667 2.74621 10.6667 2.37285 10.5213 2.08763C10.3935 1.83675 10.1895 1.63277 9.93868 1.50495C9.65348 1.35962 9.28008 1.35962 8.53334 1.35962H3.46668C2.71994 1.35962 2.34657 1.35962 2.06136 1.50495C1.81047 1.63277 1.6065 1.83675 1.47867 2.08763C1.33334 2.37285 1.33334 2.74622 1.33334 3.49295V12.5596C1.33334 13.3064 1.33334 13.6798 1.47867 13.965C1.6065 14.2158 1.81047 14.4198 2.06136 14.5476C2.34657 14.693 2.71994 14.693 3.46668 14.693Z" stroke="#5E5C61" stroke-width="1.35141" stroke-linecap="round" stroke-linejoin="round"/>
                                </svg>