<svg width="16" height="17" viewBox="0 0 16 17" fill="none" xmlns="http://www.w3.org/2000/svg">
<path d="M4.66673 8.59465H8.00006V11.928M2.00673 8.59465H2.00006M5.34006 11.928H5.33339M8.00673 14.5946H8.00006M14.0067 8.59465H14.0001M2.00006 11.928H3.00006M10.3334 8.59465H11.6667M2.00006 14.5946H5.33339M8.00006 1.92798V5.92798M11.7334 14.5946H12.9334C13.3068 14.5946 13.4935 14.5946 13.6361 14.522C13.7615 14.458 13.8635 14.3561 13.9274 14.2306C14.0001 14.088 14.0001 13.9014 14.0001 13.528V12.328C14.0001 11.9546 14.0001 11.7679 13.9274 11.6253C13.8635 11.4998 13.7615 11.3979 13.6361 11.334C13.4935 11.2613 13.3068 11.2613 12.9334 11.2613H11.7334C11.36 11.2613 11.1733 11.2613 11.0307 11.334C10.9053 11.3979 10.8033 11.4998 10.7394 11.6253C10.6667 11.7679 10.6667 11.9546 10.6667 12.328V13.528C10.6667 13.9014 10.6667 14.088 10.7394 14.2306C10.8033 14.3561 10.9053 14.458 11.0307 14.522C11.1733 14.5946 11.36 14.5946 11.7334 14.5946ZM11.7334 5.92798H12.9334C13.3068 5.92798 13.4935 5.92798 13.6361 5.85532C13.7615 5.7914 13.8635 5.68941 13.9274 5.56397C14.0001 5.42137 14.0001 5.23468 14.0001 4.86131V3.66131C14.0001 3.28795 14.0001 3.10126 13.9274 2.95865C13.8635 2.83321 13.7615 2.73123 13.6361 2.66731C13.4935 2.59465 13.3068 2.59465 12.9334 2.59465H11.7334C11.36 2.59465 11.1733 2.59465 11.0307 2.66731C10.9053 2.73123 10.8033 2.83321 10.7394 2.95865C10.6667 3.10126 10.6667 3.28795 10.6667 3.66131V4.86131C10.6667 5.23468 10.6667 5.42137 10.7394 5.56397C10.8033 5.68941 10.9053 5.7914 11.0307 5.85532C11.1733 5.92798 11.36 5.92798 11.7334 5.92798ZM3.06673 5.92798H4.26673C4.64009 5.92798 4.82678 5.92798 4.96939 5.85532C5.09483 5.7914 5.19681 5.68941 5.26073 5.56397C5.33339 5.42137 5.33339 5.23468 5.33339 4.86131V3.66131C5.33339 3.28795 5.33339 3.10126 5.26073 2.95865C5.19681 2.83321 5.09483 2.73123 4.96939 2.66731C4.82678 2.59465 4.64009 2.59465 4.26673 2.59465H3.06673C2.69336 2.59465 2.50667 2.59465 2.36407 2.66731C2.23863 2.73123 2.13664 2.83321 2.07272 2.95865C2.00006 3.10126 2.00006 3.28795 2.00006 3.66131V4.86131C2.00006 5.23468 2.00006 5.42137 2.07272 5.56397C2.13664 5.68941 2.23863 5.7914 2.36407 5.85532C2.50667 5.92798 2.69336 5.92798 3.06673 5.92798Z" stroke="#5E5C61" stroke-width="1.35141" stroke-linecap="round" stroke-linejoin="round"/>
</svg>
