<svg width="16" height="17" viewBox="0 0 16 17" fill="none" xmlns="http://www.w3.org/2000/svg">
<path d="M14.0001 4.81055H11.8667C10.7466 4.81055 10.1866 4.81055 9.75873 5.02853C9.38239 5.22028 9.07646 5.52624 8.88473 5.90257C8.66673 6.33039 8.66673 6.89044 8.66673 8.01055V8.81055M14.0001 4.81055L12.0001 2.81055M14.0001 4.81055L12.0001 6.81055M6.66673 2.81055H5.20006C4.07995 2.81055 3.5199 2.81055 3.09208 3.02853C2.71575 3.22028 2.40979 3.52624 2.21805 3.90257C2.00006 4.33039 2.00006 4.89044 2.00006 6.01055V11.6105C2.00006 12.7307 2.00006 13.2907 2.21805 13.7185C2.40979 14.0949 2.71575 14.4008 3.09208 14.5925C3.5199 14.8105 4.07995 14.8105 5.20006 14.8105H10.8001C11.9202 14.8105 12.4802 14.8105 12.9081 14.5925C13.2844 14.4008 13.5903 14.0949 13.7821 13.7185C14.0001 13.2907 14.0001 12.7307 14.0001 11.6105V10.1439" stroke="#5E5C61" stroke-width="1.35141" stroke-linecap="round" stroke-linejoin="round"/>
</svg>
