<svg width="16" height="17" viewBox="0 0 16 17" fill="none" xmlns="http://www.w3.org/2000/svg">
<path d="M2.99995 15.0455V11.7122M2.99995 5.04549V1.71216M1.33328 3.37882H4.66662M1.33328 13.3788H4.66662M8.66662 2.37882L7.51048 5.38473C7.32248 5.87355 7.22848 6.11797 7.08228 6.32355C6.95275 6.50576 6.79355 6.66495 6.61134 6.79451C6.40576 6.94069 6.16134 7.0347 5.67252 7.22269L2.66662 8.37883L5.67252 9.53496C6.16134 9.72296 6.40576 9.81696 6.61134 9.96316C6.79355 10.0927 6.95275 10.2519 7.08228 10.4341C7.22848 10.6397 7.32248 10.8841 7.51048 11.3729L8.66662 14.3788L9.82275 11.3729C10.0107 10.8841 10.1047 10.6397 10.2509 10.4341C10.3805 10.2519 10.5397 10.0927 10.7219 9.96316C10.9275 9.81696 11.1719 9.72296 11.6607 9.53496L14.6666 8.37883L11.6607 7.22269C11.1719 7.0347 10.9275 6.94069 10.7219 6.79451C10.5397 6.66495 10.3805 6.50576 10.2509 6.32355C10.1047 6.11797 10.0107 5.87355 9.82275 5.38473L8.66662 2.37882Z" stroke="#5E5C61" stroke-width="1.35141" stroke-linecap="round" stroke-linejoin="round"/>
</svg>
