<svg width="28" height="28" viewBox="0 0 28 28" fill="none" xmlns="http://www.w3.org/2000/svg">
<rect width="28" height="28" rx="14" fill="#98A2B3"/>
<path d="M21.1249 10.776C20.963 10.9046 20.8615 11.0967 20.8615 11.3034C20.8615 11.3406 20.8615 11.3768 20.8615 11.4114C20.8615 15.9395 17.4052 21.1676 11.1052 21.1676C9.44888 21.1676 7.90338 20.756 6.53605 20.0404C6.35271 19.9444 6.43578 19.6801 6.64272 19.6801C7.29476 19.6801 7.92857 19.589 8.53074 19.4185C9.38702 19.1761 9.12927 17.8161 8.51099 17.1761C8.29858 16.9561 8.11606 16.708 7.96986 16.4384C7.82762 16.176 8.07238 15.8958 8.37084 15.8958C8.60784 15.8958 8.62064 15.5795 8.40819 15.4744C7.282 14.9176 6.51147 13.7604 6.51147 12.4176C6.51147 12.3981 6.53254 12.3859 6.5496 12.3953C6.6916 12.474 6.83973 12.5423 6.99334 12.5996C7.2857 12.7088 7.45603 12.3148 7.26361 12.0691C6.8073 11.4865 6.53334 10.7504 6.53334 9.94575C6.53334 9.07758 7.59324 8.94668 8.25584 9.50764C9.64561 10.6842 11.3737 11.4759 13.2674 11.7308C13.6551 11.783 13.9708 11.4088 13.9708 11.0176C13.9708 9.1145 15.5021 7.58325 17.4052 7.58325C18.2397 7.58325 19.0114 7.88196 19.6002 8.37276C19.7967 8.53663 20.0524 8.62842 20.3002 8.56443C20.6372 8.47739 20.9622 8.36565 21.2772 8.23107C21.5698 8.10599 21.8703 8.37272 21.6961 8.63913C21.6237 8.7498 21.5453 8.85593 21.4613 8.95723C21.2837 9.17139 21.4725 9.56581 21.739 9.48579C21.9864 9.41148 22.1991 9.68935 22.0336 9.88779C21.7624 10.2131 21.4585 10.5111 21.1249 10.776Z" fill="#FDFCFF"/>
</svg>
